<svg xmlns="http://www.w3.org/2000/svg" width="22" height="20.503" viewBox="0 0 22 20.503">
  <path id="icon" d="M11.108,20.5h0a1.042,1.042,0,0,1-1-1.08v-.187a2.015,2.015,0,0,0-2.024-1.79H1a1.043,1.043,0,0,1-1-1.08V1.079A1.042,1.042,0,0,1,1,0H7.069A5,5,0,0,1,11.1,2.059,4.894,4.894,0,0,1,15.063,0H21a1.041,1.041,0,0,1,1,1.079V16.366a1.042,1.042,0,0,1-1,1.08H14.073a1.975,1.975,0,0,0-1.959,1.774v.2a1.043,1.043,0,0,1-1,1.08ZM2,15.287H8.08a3.927,3.927,0,0,1,2.024.56V5.155c0-.062,0-.124,0-.186A3.029,3.029,0,0,0,7.069,2.157H2ZM12.114,5.155V15.827a3.816,3.816,0,0,1,1.959-.54H20V2.157H15.063a2.98,2.98,0,0,0-2.953,2.8C12.113,5.021,12.114,5.088,12.114,5.155Z" fill="#ff0a6b"/>
</svg>
