<svg xmlns="http://www.w3.org/2000/svg" width="40" height="40" viewBox="0 0 40 40">
  <g id="icon-cancer" transform="translate(0)">
    <g id="Boundary" transform="translate(0)" fill="#d51c17" stroke="rgba(0,0,0,0)" stroke-width="1" opacity="0">
      <rect width="40" height="40" stroke="none"/>
      <rect x="0.5" y="0.5" width="39" height="39" fill="none"/>
    </g>
    <path id="Path_zodiac-cancer" data-name="Path / zodiac-cancer" d="M18.679,4C9.505,4,2,9.972,2,17.344a6.684,6.684,0,0,0,6.271,6.671h.4a6.671,6.671,0,0,0,0-13.343h-.4a14.694,14.694,0,0,1,10.407-4A15.485,15.485,0,0,1,27.018,9L29.1,6.919A19.167,19.167,0,0,0,18.679,4M8.671,14.008a3.336,3.336,0,1,1-3.336,3.669V17.01a3.334,3.334,0,0,1,3.336-3m20.415-3.336h-.4a6.671,6.671,0,0,0,0,13.343h.4a14.694,14.694,0,0,1-10.407,4,15.485,15.485,0,0,1-8.339-2.335L8.271,27.751a19.562,19.562,0,0,0,10.407,2.935c9.173,0,16.679-5.971,16.679-13.343a6.684,6.684,0,0,0-6.271-6.671m-.4,10.007a3.336,3.336,0,1,1,3.336-3.669v.667A3.334,3.334,0,0,1,28.686,20.679Z" transform="translate(1.705 2.479)" fill="#ff0a6b"/>
  </g>
</svg>
