<svg id="send" xmlns="http://www.w3.org/2000/svg" width="10" height="10" viewBox="0 0 10 10">
  <path id="Caminho_707" data-name="Caminho 707" d="M17.63,8.276A.607.607,0,0,1,17.2,7.24l4.75-4.712a.607.607,0,0,1,.859.859L18.059,8.1A.605.605,0,0,1,17.63,8.276Z" transform="translate(-12.987 -2.35)" fill="#fafafa"/>
  <path id="Caminho_708" data-name="Caminho 708" d="M11.861,2.35a.489.489,0,0,1,.461.65L9.165,12.023a.489.489,0,0,1-.908.037L6.529,8.171,2.64,6.443a.489.489,0,0,1,.037-.908L11.7,2.377A.488.488,0,0,1,11.861,2.35ZM8.649,10.536l2.415-6.9-6.9,2.415L7.1,7.355a.489.489,0,0,1,.248.248Z" transform="translate(-2.35 -2.35)" fill="#fafafa"/>
</svg>
