<svg xmlns="http://www.w3.org/2000/svg" width="31" height="22.001" viewBox="0 0 31 22.001">
  <g id="icon-youtube-play" transform="translate(0 0.321)">
    <path id="Caminho_2269" data-name="Caminho 2269" d="M30.325,3.548A3.662,3.662,0,0,0,27.854.71C25.434.06,15.5,0,15.5,0S5.566.06,3.146.71A3.67,3.67,0,0,0,.675,3.548a41.5,41.5,0,0,0,0,14.906A3.662,3.662,0,0,0,3.146,21.29C5.566,21.941,15.5,22,15.5,22s9.934-.06,12.354-.71a3.662,3.662,0,0,0,2.471-2.837A41.266,41.266,0,0,0,31,11,41.266,41.266,0,0,0,30.325,3.548Z" transform="translate(0 -0.321)" fill="red"/>
    <path id="Caminho_2270" data-name="Caminho 2270" d="M35.206,18.584,27,14v9.167" transform="translate(-14.691 -7.904)" fill="#fafafa"/>
  </g>
</svg>
