<svg xmlns="http://www.w3.org/2000/svg" width="22" height="19" viewBox="0 0 22 19">
  <path id="newsletter" d="M4036.055-8177.5a4.07,4.07,0,0,1-4.056-4.075v-10.851a4.07,4.07,0,0,1,4.056-4.074h13.888a4.07,4.07,0,0,1,4.056,4.074v10.851a4.07,4.07,0,0,1-4.056,4.075Zm-2.116-4.075a2.122,2.122,0,0,0,2.116,2.125h13.888a2.121,2.121,0,0,0,2.115-2.125v-8.331l-8.551,5.288a.982.982,0,0,1-.509.144.98.98,0,0,1-.507-.144l-8.553-5.289Zm9.06-5.018,9.06-5.6v-.232a2.123,2.123,0,0,0-2.115-2.127h-13.888a2.124,2.124,0,0,0-2.116,2.127v.231Z" transform="translate(-4032 8196.5)" fill="#ff0a6b"/>
</svg>
