<svg xmlns="http://www.w3.org/2000/svg" width="40" height="40" viewBox="0 0 40 40">
  <g id="icon-aries" transform="translate(0.001)">
    <g id="Boundary" transform="translate(-0.001)" fill="#d51c17" stroke="rgba(0,0,0,0)" stroke-width="1" opacity="0">
      <rect width="40" height="40" stroke="none"/>
      <rect x="0.5" y="0.5" width="39" height="39" fill="none"/>
    </g>
    <path id="Path_zodiac-aries" data-name="Path / zodiac-aries" d="M25.35,2a9.8,9.8,0,0,0-5,1.351,7.92,7.92,0,0,0-1.668,1.218,7.92,7.92,0,0,0-1.668-1.218,9.8,9.8,0,0,0-5-1.351,10.007,10.007,0,1,0,0,20.014V18.678A6.671,6.671,0,1,1,16.594,7.17a5.12,5.12,0,0,1,.417.434V35.357h3.336V7.6a5.119,5.119,0,0,1,.417-.434A6.671,6.671,0,1,1,25.35,18.678v3.336A10.007,10.007,0,1,0,25.35,2Z" transform="translate(0.714 1.336)" fill="#ff0a6b"/>
  </g>
</svg>
