<svg xmlns="http://www.w3.org/2000/svg" width="40" height="40" viewBox="0 0 40 40">
  <g id="icon-leao" transform="translate(0 0)">
    <g id="Boundary" transform="translate(0 0)" fill="#d51c17" stroke="rgba(0,0,0,0)" stroke-width="1" opacity="0">
      <rect width="40" height="40" stroke="none"/>
      <rect x="0.5" y="0.5" width="39" height="39" fill="none"/>
    </g>
    <path id="Path_zodiac-leo" data-name="Path / zodiac-leo" d="M32.026,27.018a5,5,0,0,1-5,5,5.276,5.276,0,0,1-5-5,37.693,37.693,0,0,1,1.668-7.906,38.284,38.284,0,0,0,1.668-8.773A8.566,8.566,0,0,0,17.016,2a8.566,8.566,0,0,0-8.339,8.339,33.419,33.419,0,0,0,1.668,7.505l.35,1.167a6.675,6.675,0,1,0,4.336,8.373,6.485,6.485,0,0,0,.317-2.035,34.3,34.3,0,0,0-1.818-8.473,31.289,31.289,0,0,1-1.518-6.538,5.276,5.276,0,0,1,5-5,5.276,5.276,0,0,1,5,5,37.693,37.693,0,0,1-1.668,7.906,38.284,38.284,0,0,0-1.668,8.773,8.566,8.566,0,0,0,8.339,8.339,8.339,8.339,0,0,0,8.339-8.339H32.026M8.676,28.685a3.336,3.336,0,1,1,3.336-3.336A3.336,3.336,0,0,1,8.676,28.685Z" transform="translate(1.147 1.188)" fill="#ff0a6b"/>
  </g>
</svg>
