<svg xmlns="http://www.w3.org/2000/svg" width="40" height="40" viewBox="0 0 40 40">
  <g id="icon-virgem" transform="translate(0)">
    <g id="Boundary" transform="translate(0)" fill="#d51c17" stroke="rgba(0,0,0,0)" stroke-width="1" opacity="0">
      <rect width="40" height="40" stroke="none"/>
      <rect x="0.5" y="0.5" width="39" height="39" fill="none"/>
    </g>
    <path id="Path_zodiac-virgo" data-name="Path / zodiac-virgo" d="M28.852,29.9c2.5-2.268,2.5-6.588,2.5-8.556a6.671,6.671,0,0,0-6.671-6.671,6.535,6.535,0,0,0-3.336.934V8a4.982,4.982,0,0,0-8.339-3.7,5,5,0,0,0-6.671,0A4.957,4.957,0,0,0,3,3V6.336A1.668,1.668,0,0,1,4.668,8V24.682H8V8a1.668,1.668,0,0,1,3.336,0V24.682h3.336V8a1.668,1.668,0,1,1,3.336,0V21.346c0,1.968,0,6.288,2.5,8.556a14.566,14.566,0,0,1-4.17,1.451v3.336c2.152,0,6.4-2.1,8.339-3.119,1.935,1.017,6.188,3.119,8.339,3.119V31.354a14.566,14.566,0,0,1-4.17-1.451m-4.17-11.892a3.336,3.336,0,0,1,3.336,3.336c0,4.87-.9,6.671-3.336,6.671s-3.336-1.8-3.336-6.671A3.336,3.336,0,0,1,24.682,18.011Z" transform="translate(2.259 2.351)" fill="#ff0a6b"/>
  </g>
</svg>
