<svg xmlns="http://www.w3.org/2000/svg" width="10" height="10" viewBox="0 0 10 10">
  <path id="União_29" data-name="União 29" d="M4348.934-100.84l-3.52-3.52-3.521,3.52a.865.865,0,0,1-1.226,0,.866.866,0,0,1,0-1.226l3.52-3.52-3.52-3.52a.867.867,0,0,1,0-1.227.867.867,0,0,1,1.226,0l3.521,3.52,3.52-3.52a.868.868,0,0,1,1.226,0,.868.868,0,0,1,0,1.227l-3.52,3.52,3.52,3.52a.867.867,0,0,1,0,1.226.864.864,0,0,1-.613.254A.862.862,0,0,1,4348.934-100.84Z" transform="translate(-4340.414 110.586)" fill="#909090"/>
</svg>
