<svg xmlns="http://www.w3.org/2000/svg" width="40" height="40" viewBox="0 0 40 40">
  <g id="icon-gemeos" transform="translate(-0.001 0)">
    <g id="Boundary" transform="translate(0.001 0)" fill="#d51c17" stroke="rgba(0,0,0,0)" stroke-width="1" opacity="0">
      <rect width="40" height="40" stroke="none"/>
      <rect x="0.5" y="0.5" width="39" height="39" fill="none"/>
    </g>
    <path id="Path_zodiac-gemini" data-name="Path / zodiac-gemini" d="M28.646,7.41a43.3,43.3,0,0,0,6.571-2.168l-1.268-3.1a39.617,39.617,0,0,1-15.311,3.1A39.875,39.875,0,0,1,3.328,2.19L2.06,5.242A43.3,43.3,0,0,0,8.631,7.41V29.76A43.3,43.3,0,0,0,2.06,31.928l1.268,3.1a39.929,39.929,0,0,1,30.622,0l1.268-3.1a43.3,43.3,0,0,0-6.571-2.168V7.41M11.967,29.093V8.061a44.6,44.6,0,0,0,6.671.517,44.6,44.6,0,0,0,6.671-.517V29.109a43.648,43.648,0,0,0-13.343,0Z" transform="translate(1.599 1.251)" fill="#ff0a6b"/>
  </g>
</svg>
