<svg xmlns="http://www.w3.org/2000/svg" width="18.636" height="21.226" viewBox="0 0 18.636 21.226">
  <path id="icon-tiktok" d="M11.369.016C12.446,0,13.514.008,14.582,0a5.119,5.119,0,0,0,1.438,3.427A5.8,5.8,0,0,0,19.505,4.9V8.21a8.8,8.8,0,0,1-3.452-.8,10.154,10.154,0,0,1-1.331-.764c-.008,2.4.008,4.8-.016,7.191a6.277,6.277,0,0,1-1.11,3.238,6.123,6.123,0,0,1-4.857,2.638,5.993,5.993,0,0,1-3.353-.847,6.2,6.2,0,0,1-3-4.693c-.016-.411-.025-.822-.008-1.225a6.187,6.187,0,0,1,7.175-5.49C9.569,8.679,9.52,9.9,9.52,11.112a2.82,2.82,0,0,0-3.6,1.742A3.26,3.26,0,0,0,5.8,14.177a2.8,2.8,0,0,0,2.877,2.359,2.761,2.761,0,0,0,2.277-1.323,1.9,1.9,0,0,0,.337-.871c.082-1.471.049-2.934.058-4.405.008-3.312-.008-6.616.016-9.92Z" transform="translate(-1.619 0.75)" fill="none" stroke="#ff0a6b" stroke-linecap="round" stroke-linejoin="round" stroke-width="1.5"/>
</svg>
