<svg id="logo-personare" xmlns="http://www.w3.org/2000/svg" width="117.734" height="29.997" viewBox="0 0 117.734 29.997">
  <path id="Caminho_2240" data-name="Caminho 2240" d="M12.477,16.7a9.457,9.457,0,0,1,.655-1.483,5.489,5.489,0,1,1,6.639,0,9.474,9.474,0,0,1,.655,1.483,7.084,7.084,0,1,0-7.95,0Z" transform="translate(-0.683 -0.28)" fill="#b31983"/>
  <path id="Caminho_2241" data-name="Caminho 2241" d="M16.372,21.04a5.475,5.475,0,1,1-3.308-5.69,9.408,9.408,0,0,1,1-1.285,7.034,7.034,0,1,0,3.927,6.767A9.014,9.014,0,0,1,16.372,21.04Z" transform="translate(-0.28 -0.973)" fill="#73308a"/>
  <path id="Caminho_2242" data-name="Caminho 2242" d="M21.981,13.335a7.062,7.062,0,0,0-3.138.732,9.511,9.511,0,0,1,1,1.285,5.452,5.452,0,1,1-3.308,5.69,9.007,9.007,0,0,1-1.619-.207,7.081,7.081,0,1,0,7.065-7.5Z" transform="translate(-1.088 -0.973)" fill="#f93549"/>
  <path id="Caminho_2243" data-name="Caminho 2243" d="M11.454,18.317a1.973,1.973,0,0,1,.821.183,9.516,9.516,0,0,1,1.18-3.024,9.65,9.65,0,0,1,2.037-2.359,1.981,1.981,0,0,1-.8-1.032c-.225.189-.444.386-.654.6a10.562,10.562,0,0,0-2.975,5.674A1.989,1.989,0,0,1,11.454,18.317Z" transform="translate(-0.807 -0.882)" fill="#ee4043"/>
  <path id="Caminho_2244" data-name="Caminho 2244" d="M29.211,12.482A10.793,10.793,0,0,0,18.054,9.965a1.952,1.952,0,0,1,.507,1.312c0,.022,0,.043,0,.066a9.192,9.192,0,1,1-6.021,10.388,1.948,1.948,0,0,1-1.443.286,10.568,10.568,0,0,0,2.952,5.54,10.767,10.767,0,0,0,15.164,0,10.616,10.616,0,0,0,0-15.076Z" transform="translate(-0.809 -0.683)" fill="#f93549"/>
  <path id="Caminho_2245" data-name="Caminho 2245" d="M18.181,13.117a9.626,9.626,0,0,1,2.037,2.359A9.5,9.5,0,0,1,21.4,18.5a1.95,1.95,0,0,1,1.208-.145,10.554,10.554,0,0,0-2.975-5.674c-.21-.209-.431-.407-.655-.6A1.974,1.974,0,0,1,18.181,13.117Z" transform="translate(-1.326 -0.882)" fill="#6d2c90"/>
  <path id="Caminho_2246" data-name="Caminho 2246" d="M20.891,22.053a1.962,1.962,0,0,1-1.078-.32,9.237,9.237,0,1,1-6.021-10.388c0-.022,0-.043,0-.066A1.949,1.949,0,0,1,14.3,9.967a10.81,10.81,0,0,0-3.575-.606,10.684,10.684,0,0,0-7.583,3.122,10.614,10.614,0,0,0,0,15.074,10.769,10.769,0,0,0,15.165,0,10.554,10.554,0,0,0,2.952-5.54A1.973,1.973,0,0,1,20.891,22.053Z" transform="translate(0 -0.683)" fill="#73308a"/>
  <path id="Caminho_2247" data-name="Caminho 2247" d="M19.877,21.042a9.051,9.051,0,0,1-6.309,0,1.96,1.96,0,0,1-.482,1.186,10.864,10.864,0,0,0,7.272,0A1.976,1.976,0,0,1,19.877,21.042Z" transform="translate(-0.955 -1.535)" fill="#b3258e"/>
  <path id="Caminho_2248" data-name="Caminho 2248" d="M23.747,3.122a10.767,10.767,0,0,0-15.164,0,10.616,10.616,0,0,0,0,15.076c.193.192.392.372.6.546a1.982,1.982,0,0,1,.975-1.1A9.221,9.221,0,1,1,25.42,10.66a9.156,9.156,0,0,1-3.244,6.986,1.978,1.978,0,0,1,.975,1.1c.2-.175.4-.356.6-.546a10.615,10.615,0,0,0,0-15.076Z" transform="translate(-0.397)" fill="#b31983"/>
  <path id="Caminho_2249" data-name="Caminho 2249" d="M13.181,20.765a1.981,1.981,0,1,1-1.148-1.89,9.6,9.6,0,0,1,.4-1.405,3.412,3.412,0,1,0,2.175,3.691A9.614,9.614,0,0,1,13.181,20.765Z" transform="translate(-0.567 -1.258)" fill="#73308a"/>
  <path id="Caminho_2250" data-name="Caminho 2250" d="M22.269,17.246a3.44,3.44,0,0,0-1.223.225,9.6,9.6,0,0,1,.4,1.405,1.964,1.964,0,1,1-1.149,1.89,9.691,9.691,0,0,1-1.43.4,3.434,3.434,0,1,0,3.4-3.917Z" transform="translate(-1.377 -1.258)" fill="#f93549"/>
  <path id="Caminho_2251" data-name="Caminho 2251" d="M14.6,13.828A9.948,9.948,0,0,1,15.655,12.8a1.98,1.98,0,1,1,2.171,0,9.958,9.958,0,0,1,1.053,1.028,3.434,3.434,0,1,0-4.277,0Z" transform="translate(-0.971 -0.565)" fill="#b31983"/>
  <path id="Caminho_2252" data-name="Caminho 2252" d="M43.851,9.3c3.169,0,4.99,1.558,4.99,4.282,0,2.831-1.821,4.479-4.99,4.479h-2.9v3.78H38.828V9.3Zm-2.9,6.86h2.811c1.944,0,3.043-.823,3.043-2.526,0-1.648-1.1-2.435-3.043-2.435H40.951Z" transform="translate(-2.833 -0.679)" fill="#1f2b7d"/>
  <path id="Caminho_2253" data-name="Caminho 2253" d="M59.64,18.1H52.4a2.913,2.913,0,0,0,2.972,2.383,3.252,3.252,0,0,0,2.483-1.11l1.317,1.165a5.224,5.224,0,0,1-3.962,1.612,4.6,4.6,0,0,1-4.9-4.819,4.638,4.638,0,0,1,4.844-4.854C58.523,12.473,59.892,14.657,59.64,18.1Zm-1.8-1.5a2.454,2.454,0,0,0-2.665-2.472,2.721,2.721,0,0,0-2.809,2.472Z" transform="translate(-3.67 -0.91)" fill="#1f2b7d"/>
  <path id="Caminho_2254" data-name="Caminho 2254" d="M63.89,14.443a3.484,3.484,0,0,1,3.312-1.97v1.97a2.9,2.9,0,0,0-3.312,2.651v4.981H61.819V12.542H63.89Z" transform="translate(-4.51 -0.91)" fill="#1f2b7d"/>
  <path id="Caminho_2255" data-name="Caminho 2255" d="M75.366,13.42l-.976,1.523a4.912,4.912,0,0,0-2.537-.841c-.809,0-1.4.269-1.4.95,0,1.754,5.095.805,5.076,4.265,0,1.952-1.746,2.83-3.675,2.83a6.554,6.554,0,0,1-4.071-1.326l1.175-1.468a4.658,4.658,0,0,0,2.988,1.181c.881,0,1.566-.305,1.566-1.021,0-1.952-5.045-.86-5.025-4.3,0-1.935,1.692-2.76,3.528-2.76A6.1,6.1,0,0,1,75.366,13.42Z" transform="translate(-4.945 -0.908)" fill="#1f2b7d"/>
  <path id="Caminho_2256" data-name="Caminho 2256" d="M98.1,16.144v5.93H96.028V16.717a2.129,2.129,0,0,0-2.305-2.311A2.678,2.678,0,0,0,91,17v5.07h-2.07V12.541H91v1.828a3.625,3.625,0,0,1,3.53-1.9A3.34,3.34,0,0,1,98.1,16.144Z" transform="translate(-6.488 -0.91)" fill="#1f2b7d"/>
  <path id="Caminho_2257" data-name="Caminho 2257" d="M106.525,20.91a3.89,3.89,0,0,1-3.169,1.254c-2.073,0-3.367-1.274-3.367-2.957,0-1.737,1.315-2.848,3.619-2.866h2.9v-.287c0-1.2-.775-1.917-2.287-1.917a4.442,4.442,0,0,0-2.609.967l-1.064-1.432a7.046,7.046,0,0,1,4.123-1.2c2.468,0,3.855,1.254,3.872,3.351l.019,6.252h-2.035V20.91Zm-.018-2.62v-.444h-2.594c-1.35,0-1.982.358-1.982,1.274,0,.86.7,1.414,1.854,1.414C105.267,20.534,106.607,19.771,106.507,18.291Z" transform="translate(-7.295 -0.91)" fill="#1f2b7d"/>
  <path id="Caminho_2258" data-name="Caminho 2258" d="M112.91,14.443a3.484,3.484,0,0,1,3.313-1.97v1.97a2.9,2.9,0,0,0-3.313,2.651v4.981h-2.071V12.542h2.071Z" transform="translate(-8.086 -0.91)" fill="#1f2b7d"/>
  <path id="Caminho_2259" data-name="Caminho 2259" d="M126.234,18.1h-7.24a2.914,2.914,0,0,0,2.972,2.383,3.243,3.243,0,0,0,2.481-1.11l1.318,1.165a5.223,5.223,0,0,1-3.961,1.612,4.6,4.6,0,0,1-4.9-4.819,4.639,4.639,0,0,1,4.846-4.854C125.117,12.473,126.486,14.657,126.234,18.1Zm-1.8-1.5a2.455,2.455,0,0,0-2.665-2.472,2.72,2.72,0,0,0-2.809,2.472Z" transform="translate(-8.529 -0.91)" fill="#1f2b7d"/>
  <path id="Caminho_2260" data-name="Caminho 2260" d="M81.938,22.145a4.925,4.925,0,0,1-5-4.837,5,5,0,0,1,9.995,0A4.925,4.925,0,0,1,81.938,22.145Zm0-7.714a2.88,2.88,0,1,0,2.973,2.878A2.929,2.929,0,0,0,81.938,14.431Z" transform="translate(-5.613 -0.91)" fill="#1f2b7d"/>
</svg>
