<svg xmlns="http://www.w3.org/2000/svg" width="179.63" height="71" viewBox="0 0 179.63 71">
  <g id="logo" transform="translate(-875 -326)">
    <path id="elipse" d="M40.128,21.5a5.038,5.038,0,1,0-5.038-5.038A5.039,5.039,0,0,0,40.128,21.5" transform="translate(863.864 322.376)" fill="#ff0a6b"/>
    <path id="nome" d="M35.7,41.984a6.71,6.71,0,1,1-6.71-6.716,6.712,6.712,0,0,1,6.71,6.716m22.288,0A29,29,0,0,0,36.419,13.958a7.469,7.469,0,0,1-14.854,0A29,29,0,1,0,57.983,41.984m40.1-6.518h.437V13.289a28.978,28.978,0,0,0-8.547,2.658,15.76,15.76,0,0,0-4.84,2.965v-4.1H62.325V68.964H85.132V35.48H98.075v-.014Zm35.484,6.347a6.71,6.71,0,1,1-6.71-6.716,6.712,6.712,0,0,1,6.71,6.716M153.157,42a26.772,26.772,0,0,0-26.6-26.946,27.256,27.256,0,0,0-3.1.184V0H102.9V68.95h20.561c1.8.034,2.048,0,3.1,0A26.772,26.772,0,0,0,153.157,42M179.63,14.833H157.738V68.964H179.63V14.839Z" transform="translate(875 326)" fill="#231f20"/>
  </g>
</svg>
 