<svg xmlns="http://www.w3.org/2000/svg" xmlns:xlink="http://www.w3.org/1999/xlink" width="113" height="90" viewBox="0 0 113 90">
  <defs>
    <clipPath id="clip-path">
      <rect id="Retângulo_559" data-name="Retângulo 559" width="112.982" height="90"/>
    </clipPath>
    <clipPath id="clip-path-2">
      <path id="Caminho_2263" data-name="Caminho 2263" d="M411.22,238.145a16.518,16.518,0,1,0,16.52-16.515,16.52,16.52,0,0,0-16.52,16.515" transform="translate(-411.22 -221.63)"/>
    </clipPath>
  </defs>
  <g id="logo-copa2022" transform="translate(-295.18 -197.38)">
    <rect id="Retângulo_558" data-name="Retângulo 558" width="38.741" height="38.741" transform="translate(336.275 224.774) rotate(-45)" fill="#ed1d6c"/>
    <g id="Grupo_1797" data-name="Grupo 1797" transform="translate(295.18 197.38)">
      <g id="Grupo_1796" data-name="Grupo 1796" transform="translate(0)" clip-path="url(#clip-path)">
        <path id="Caminho_2261" data-name="Caminho 2261" d="M427.719,254.671a16.515,16.515,0,1,0-16.5-16.515,16.507,16.507,0,0,0,16.5,16.515" transform="translate(-359.221 -210.758)" fill="#5054a4"/>
      </g>
    </g>
    <g id="Grupo_1799" data-name="Grupo 1799" transform="translate(347.158 208.257)">
      <g id="Grupo_1798" data-name="Grupo 1798" clip-path="url(#clip-path-2)">
        <path id="Caminho_2262" data-name="Caminho 2262" d="M442.573,212.913l.547-.547-1.776-1.776-.547.547h-4.831v4.835l-.2.2h-4.835V221l-.2.2H425.9v4.835l-.2.2h-4.835v4.831l-.1.1h-4.835V236l-.193.2H410.91v4.835l-.2.2h-4.835v4.831l-.193.2h-4.835v4.835l-.659.659,1.776,1.776.659-.664V248.03h4.835l.193-.2V243h4.835l.2-.2v-4.835h4.831l.2-.2v-4.831h4.835l.1-.1v-4.831h4.835l.2-.2v-4.835h4.831l.2-.2v-4.831h4.835l.193-.2v-4.835Z" transform="translate(-405.137 -215.542)" fill="#fff"/>
      </g>
    </g>
    <g id="Grupo_1802" data-name="Grupo 1802" transform="translate(295.18 197.38)">
      <g id="Grupo_1800" data-name="Grupo 1800" transform="translate(0)" clip-path="url(#clip-path)">
        <path id="Caminho_2264" data-name="Caminho 2264" d="M347.52,370.082a12.415,12.415,0,0,0,4.4-3.2,5.929,5.929,0,0,0,1.425-3.772,4.6,4.6,0,0,0-.6-2.377,4.877,4.877,0,0,0-1.676-1.678,8.331,8.331,0,0,0-2.518-1,13.948,13.948,0,0,0-3.119-.332,11.725,11.725,0,0,0-6.157,1.57,13.4,13.4,0,0,0-4.32,4.136l1.806,1.678a12.023,12.023,0,0,1,1.945-1.265,3.947,3.947,0,0,1,1.757-.413,2.612,2.612,0,0,1,1.488.426,1.722,1.722,0,0,1,.632,1.538,4.431,4.431,0,0,1-.587,2.077,12.95,12.95,0,0,1-1.676,2.346,36.1,36.1,0,0,1-2.693,2.727q-1.6,1.474-3.625,3.248h30.615v-5.705Z" transform="translate(-316.604 -285.801)" fill="#ed1d6c"/>
      </g>
      <g id="Grupo_1801" data-name="Grupo 1801" transform="translate(0)" clip-path="url(#clip-path)">
        <path id="Caminho_2265" data-name="Caminho 2265" d="M388.888,367.142q-1.331-.457-1.331-1.44,0-1.016,1.331-1.44a10.843,10.843,0,0,1,3.262-.426,13.271,13.271,0,0,1,1.788.112,6.93,6.93,0,0,1,1.456.332,2.713,2.713,0,0,1,.981.57,1.192,1.192,0,0,1,0,1.713,2.938,2.938,0,0,1-.981.588,6.611,6.611,0,0,1-1.456.35,14.055,14.055,0,0,1-1.788.112,10.433,10.433,0,0,1-3.262-.471m7.277,7.222a10.364,10.364,0,0,0,3.325-1.915,9.29,9.29,0,0,0,2.263-2.947,9.052,9.052,0,0,0,0-7.607,9.291,9.291,0,0,0-2.263-2.947,10.284,10.284,0,0,0-3.325-1.915,12.19,12.19,0,0,0-8.039,0,10.364,10.364,0,0,0-3.325,1.915,9.292,9.292,0,0,0-2.263,2.947,9.052,9.052,0,0,0,0,7.607,9.291,9.291,0,0,0,2.263,2.947,10.281,10.281,0,0,0,3.325,1.915,11.838,11.838,0,0,0,4.02.682,11.713,11.713,0,0,0,4.02-.682" transform="translate(-342.929 -285.045)" fill="#ed1d6c"/>
      </g>
    </g>
    <rect id="Retângulo_562" data-name="Retângulo 562" width="49.851" height="2.341" transform="translate(336.518 284.976)" fill="#ed1d6c"/>
    <path id="Caminho_2266" data-name="Caminho 2266" d="M388.366,293.413a1.545,1.545,0,0,1-.462-1.18,1.578,1.578,0,0,1,1.618-1.619,1.607,1.607,0,0,1,1.134.462,1.538,1.538,0,0,1,.484,1.157,1.513,1.513,0,0,1-.484,1.18,1.624,1.624,0,0,1-1.134.44,1.6,1.6,0,0,1-1.156-.44m16.867-3.543a17.691,17.691,0,0,1-.95-3.288,34.718,34.718,0,0,0-1.6-5.6,13.923,13.923,0,0,0-2.752-4.494A12.1,12.1,0,0,0,395.4,273.5a19.277,19.277,0,0,0-6.986-1.09,38.026,38.026,0,0,0-3.818.211,22.448,22.448,0,0,0-3.863.718v8.8a10.987,10.987,0,0,1,3.518-.556,7.666,7.666,0,0,1,2.429.323,3.832,3.832,0,0,1,1.55.951,4.511,4.511,0,0,1,.95,1.552,22.551,22.551,0,0,1,.672,2.175,8.07,8.07,0,0,0-3.657-.879,7.641,7.641,0,0,0-2.962.556,7.2,7.2,0,0,0-2.29,1.48,6.346,6.346,0,0,0-1.456,2.2,7.325,7.325,0,0,0-.506,2.754,7.08,7.08,0,0,0,.533,2.754A6.79,6.79,0,0,0,381,297.67a6.977,6.977,0,0,0,2.267,1.5,7.635,7.635,0,0,0,9.648-3.427,8.1,8.1,0,0,0,3.5,3.01,14.137,14.137,0,0,0,5.758.973,16.762,16.762,0,0,0,3.379-.278c.865-.184,1.743-.4,2.639-.65v-7.872a2.794,2.794,0,0,1-.972.184,1.942,1.942,0,0,1-1.981-1.242m-40.621,7.607a2.287,2.287,0,0,1,0-3.238,2.261,2.261,0,0,1,3.262,0,2.315,2.315,0,0,1-1.618,3.934,2.2,2.2,0,0,1-1.645-.7m.968-13.752a9.631,9.631,0,0,0-3.307,2.965l-1.434-3.566H350.661V315.54H364.54v-8.195a9.255,9.255,0,0,0,5.6,1.713,12.025,12.025,0,0,0,4.929-1,11.615,11.615,0,0,0,3.885-2.776,13.033,13.033,0,0,0,2.568-4.189,15.233,15.233,0,0,0,0-10.469,13.034,13.034,0,0,0-2.568-4.189,11.736,11.736,0,0,0-3.885-2.781,12.011,12.011,0,0,0-4.929-1,9.4,9.4,0,0,0-4.557,1.063m-28.822,2.036a2.346,2.346,0,1,1,1.645.673,2.238,2.238,0,0,1-1.645-.673m-4.235-14.241a13.942,13.942,0,0,0-4.6,2.92,13.346,13.346,0,0,0-3.007,4.351,13.56,13.56,0,0,0,0,10.648,13.364,13.364,0,0,0,3.007,4.351,14.014,14.014,0,0,0,4.6,2.92,16.764,16.764,0,0,0,11.749,0,13.869,13.869,0,0,0,4.6-2.92,13.483,13.483,0,0,0,3.007-4.351,13.561,13.561,0,0,0,0-10.648,13.437,13.437,0,0,0-3.007-4.351,14.061,14.061,0,0,0-4.6-2.92,16.763,16.763,0,0,0-11.749,0m-15.773,1.224a5.063,5.063,0,0,1,0-6.764,4.745,4.745,0,0,1,3.518-1.3,4.46,4.46,0,0,1,2.568.65,11.915,11.915,0,0,1,1.873,1.619l4.674-2.965a19.562,19.562,0,0,0-6.569-8.383,16.891,16.891,0,0,0-9.948-2.916,18.892,18.892,0,0,0-7.147,1.319,17.335,17.335,0,0,0-5.6,3.566,15.908,15.908,0,0,0-3.634,5.279,16.99,16.99,0,0,0,0,13.012,15.908,15.908,0,0,0,3.634,5.279,17.337,17.337,0,0,0,5.6,3.566,18.891,18.891,0,0,0,7.147,1.319,16.923,16.923,0,0,0,9.948-2.915,19.536,19.536,0,0,0,6.569-8.383l-4.674-2.965a14.242,14.242,0,0,1-1.873,1.6,4.358,4.358,0,0,1-2.568.673,4.718,4.718,0,0,1-3.518-1.292" transform="translate(-0.005 -30.501)"/>
    <path id="Caminho_2267" data-name="Caminho 2267" d="M473.793,370.082a12.425,12.425,0,0,0,4.4-3.2,5.926,5.926,0,0,0,1.426-3.772,4.6,4.6,0,0,0-.6-2.377,4.881,4.881,0,0,0-1.678-1.678,8.344,8.344,0,0,0-2.521-1,13.975,13.975,0,0,0-3.122-.332,11.745,11.745,0,0,0-6.163,1.57,13.4,13.4,0,0,0-4.324,4.136l1.808,1.678a12.036,12.036,0,0,1,1.947-1.265,3.954,3.954,0,0,1,1.758-.413,2.616,2.616,0,0,1,1.489.426,1.721,1.721,0,0,1,.632,1.538,4.428,4.428,0,0,1-.587,2.077,12.954,12.954,0,0,1-1.678,2.346,36.1,36.1,0,0,1-2.7,2.727q-1.6,1.474-3.629,3.248h19.96v-5.705Z" transform="translate(-91.121 -88.421)" fill="#ed1d6c"/>
    <path id="Caminho_2268" data-name="Caminho 2268" d="M515.982,370.082a12.425,12.425,0,0,0,4.4-3.2,5.926,5.926,0,0,0,1.426-3.772,4.6,4.6,0,0,0-.6-2.377,4.879,4.879,0,0,0-1.677-1.678,8.346,8.346,0,0,0-2.521-1,13.975,13.975,0,0,0-3.122-.332,11.746,11.746,0,0,0-6.163,1.57,13.407,13.407,0,0,0-4.324,4.136l1.808,1.678a12.041,12.041,0,0,1,1.947-1.265,3.954,3.954,0,0,1,1.758-.413,2.617,2.617,0,0,1,1.489.426,1.721,1.721,0,0,1,.632,1.538,4.429,4.429,0,0,1-.588,2.077,12.952,12.952,0,0,1-1.678,2.346,36.085,36.085,0,0,1-2.7,2.727q-1.6,1.474-3.629,3.248h19.96v-5.705Z" transform="translate(-114.409 -88.421)" fill="#ed1d6c"/>
  </g>
</svg>
